<?xml version="1.0" encoding="UTF-8"?>
<svg width="120" height="40" viewBox="0 0 120 40" fill="none" xmlns="http://www.w3.org/2000/svg">
  <path d="M20 8H8V32H12V20H20V16H12V12H20V8Z" fill="#111827"/>
  <path d="M32 8H24V32H32C36.4183 32 40 28.4183 40 24V16C40 11.5817 36.4183 8 32 8ZM36 24C36 26.2091 34.2091 28 32 28H28V12H32C34.2091 12 36 13.7909 36 16V24Z" fill="#111827"/>
  <path d="M52 8H44V32H48V24H52C55.3137 24 58 21.3137 58 18V14C58 10.6863 55.3137 8 52 8ZM54 18C54 19.1046 53.1046 20 52 20H48V12H52C53.1046 12 54 12.8954 54 14V18Z" fill="#111827"/>
  <path d="M76 8H64V12H68V32H72V12H76V8Z" fill="#111827"/>
  <path d="M92 8H80V32H84V24H88L92 32H96L91.798 23.397C94.1946 22.2187 96 19.8519 96 17V14C96 10.6863 93.3137 8 90 8H92ZM92 14V18C92 19.1046 91.1046 20 90 20H84V12H90C91.1046 12 92 12.8954 92 14Z" fill="#111827"/>
  <path d="M112 8H100V32H112V28H104V22H112V18H104V12H112V8Z" fill="#111827"/>
</svg> 